<?xml version="1.0" encoding="utf-8"?>
<!-- Generator: Adobe Illustrator 23.0.0, SVG Export Plug-In . SVG Version: 6.00 Build 0)  -->
<svg version="1.1" id="Layer_1" xmlns="http://www.w3.org/2000/svg" xmlns:xlink="http://www.w3.org/1999/xlink" x="0px" y="0px"
	 viewBox="0 0 500 500" style="enable-background:new 0 0 500 500;" xml:space="preserve">
<g>
	<path d="M250,500c-66.8,0-129.6-26-176.8-73.2C26,379.6,0,316.8,0,250c0-66.8,26-129.6,73.2-176.8S183.2,0,250,0
		s129.6,26,176.8,73.2S500,183.2,500,250c0,66.8-26,129.6-73.2,176.8C379.6,474,316.8,500,250,500z M250,9.8
		C117.6,9.8,9.8,117.6,9.8,250c0,132.4,107.8,240.2,240.2,240.2S490.2,382.4,490.2,250C490.2,117.6,382.4,9.8,250,9.8z"/>
</g>
<g>
	<g>
		<path d="M414.5,339L272.9,80.4c-7.6-13.9-28.1-14.2-36.1-0.5l-77.4,132.8c-4.2,7.3,7.1,13.9,11.4,6.6l77.4-132.8
			c2.9-5.1,10.4-4.9,13.2,0.2L403,345.3c2.7,5-1,11.3-6.7,11.3H103.7c-5.8,0-9.5-6.4-6.6-11.4l47.1-80.8c4.2-7.3-7.1-13.9-11.4-6.6
			l-47.1,80.8c-7.9,13.6,2.2,31.2,17.9,31.2h292.7C411.8,369.7,422,352.7,414.5,339L414.5,339z M414.5,339"/>
	</g>
	<path d="M252,261.3L252,261.3c8.9,0,16.4-7,17.1-15.9l5-68.3c0.3-4.7-1.3-9.4-4.5-12.9c-3.2-3.5-7.8-5.5-12.5-5.5h-10
		c-4.7,0-9.3,2-12.5,5.5c-3.2,3.5-4.9,8.2-4.5,12.9l5,68.3C235.5,254.3,243,261.3,252,261.3L252,261.3z M244.1,173.1
		c0.4-0.5,1.4-1.3,2.9-1.3h10c1.5,0,2.5,0.8,2.9,1.3c0.4,0.5,1.2,1.5,1.1,3l-5,68.3c-0.2,2.1-1.9,3.7-4,3.7h0c-2.1,0-3.8-1.6-4-3.7
		l-5-68.3C242.9,174.6,243.6,173.6,244.1,173.1C244.5,172.6,243.6,173.6,244.1,173.1L244.1,173.1z M244.1,173.1"/>
	<path d="M252,321.3c13,0,23.6-10.6,23.6-23.6c0-13-10.6-23.6-23.6-23.6c-13,0-23.6,10.6-23.6,23.6C228.4,310.7,239,321.3,252,321.3
		L252,321.3z M252,287.2c5.8,0,10.5,4.7,10.5,10.5c0,5.8-4.7,10.5-10.5,10.5c-5.8,0-10.5-4.7-10.5-10.5
		C241.5,291.9,246.2,287.2,252,287.2L252,287.2z M252,287.2"/>
	<path d="M151.5,245.1c3.6,0,6.6-3,6.6-6.6c0-3.6-3-6.6-6.6-6.6c-3.5,0-6.4,2.8-6.6,6.3C144.8,241.9,147.8,245.1,151.5,245.1
		L151.5,245.1z M151.5,245.1"/>
</g>
</svg>
