<?xml version="1.0" encoding="utf-8"?>
<!-- Generator: Adobe Illustrator 23.0.0, SVG Export Plug-In . SVG Version: 6.00 Build 0)  -->
<svg version="1.1" id="Layer_1" xmlns="http://www.w3.org/2000/svg" xmlns:xlink="http://www.w3.org/1999/xlink" x="0px" y="0px"
	 viewBox="0 0 500 500" style="enable-background:new 0 0 500 500;" xml:space="preserve">
<g>
	<path d="M250,500c-66.8,0-129.6-26-176.8-73.2C26,379.6,0,316.8,0,250c0-66.8,26-129.6,73.2-176.8S183.2,0,250,0
		s129.6,26,176.8,73.2S500,183.2,500,250c0,66.8-26,129.6-73.2,176.8C379.6,474,316.8,500,250,500z M250,9.8
		C117.6,9.8,9.8,117.6,9.8,250c0,132.4,107.8,240.2,240.2,240.2S490.2,382.4,490.2,250C490.2,117.6,382.4,9.8,250,9.8z"/>
</g>
<g>
	<path d="M385,245V135c0-13.8-11.2-25-25-25H140c-13.8,0-25,11.2-25,25v75c-8.3,0-15,6.7-15,15v150c0,8.3,6.7,15,15,15h110
		c8.3,0,15-6.7,15-15h41.9c4.7,0,9.1-2.1,11.9-5.9c2.9-3.7,3.8-8.5,2.5-13l-9.8-36.1H315v55c0,8.3,6.7,15,15,15h55
		c8.3,0,15-6.7,15-15V260C400,251.7,393.3,245,385,245z M390,260v10h-65v-10c0-2.8,2.2-5,5-5h55C387.8,255,390,257.2,390,260z
		 M325,280h65v75h-65V280z M125,135c0-8.3,6.7-15,15-15h220c8.3,0,15,6.7,15,15v110h-45c-8.3,0-15,6.7-15,15v10h-75v-45
		c0-8.3-6.7-15-15-15H125V135z M230,355H110V245h120V355z M115,220h110c2.8,0,5,2.2,5,5v10H110v-10C110,222.2,112.2,220,115,220z
		 M225,380H115c-2.8,0-5-2.2-5-5v-10h120v10C230,377.8,227.8,380,225,380z M285.9,363c-1,1.3-2.4,2-4,2H240v-10h45.7l1,3.7
		C287.1,360.2,286.8,361.8,285.9,363z M283,345h-43v-25h36.2L283,345z M240,310v-30h75v30H240z M385,380h-55c-2.8,0-5-2.2-5-5v-10
		h65v10C390,377.8,387.8,380,385,380z"/>
	<path d="M130,312.9l12.9-12.9c2-2,5.1-2,7.1,0l0,0c2,2,2,5.1,0,7.1L137.1,320c-2,2-5.1,2-7.1,0l0,0C128,318,128,314.9,130,312.9z"
		/>
	<path d="M150,327.9l52.9-52.9c2-2,5.1-2,7.1,0h0c2,2,2,5.1,0,7.1L157.1,335c-2,2-5.1,2-7.1,0l0,0C148,333,148,329.9,150,327.9z"/>
	<path d="M160,282.9l22.9-22.9c2-2,5.1-2,7.1,0v0c2,2,2,5.1,0,7.1L167.1,290c-2,2-5.1,2-7.1,0v0C158,288,158,284.9,160,282.9z"/>
	<path d="M340,312.9l17.9-17.9c2-2,5.1-2,7.1,0l0,0c2,2,2,5.1,0,7.1L347.1,320c-2,2-5.1,2-7.1,0l0,0C338,318.1,338,314.9,340,312.9z
		"/>
	<path d="M350,333l17.9-17.9c2-2,5.1-2,7.1,0l0,0c2,2,2,5.1,0,7.1L357.1,340c-2,2-5.1,2-7.1,0v0C348,338.1,348,334.9,350,333z"/>
	<path d="M235,192.9l22.9-22.9c2-2,5.1-2,7.1,0l0,0c2,2,2,5.1,0,7.1L242.1,200c-2,2-5.1,2-7.1,0h0C233,198,233,194.9,235,192.9z"/>
	<path d="M280,182.9l22.9-22.9c2-2,5.1-2,7.1,0v0c2,2,2,5.1,0,7.1L287.1,190c-2,2-5.1,2-7.1,0v0C278,188,278,184.9,280,182.9z"/>
	<path d="M250,212.9l12.9-12.9c2-2,5.1-2,7.1,0v0c2,2,2,5.1,0,7.1L257.1,220c-2,2-5.1,2-7.1,0l0,0C248,218.1,248,214.9,250,212.9z"
		/>
	<path d="M275,153l13-13c2-2,5.1-2,7.1,0l0,0c2,2,2,5.1,0,7.1l-13,13c-2,2-5.1,2-7.1,0l0,0C273,158.1,273,154.9,275,153z"/>
	<path d="M140,130L140,130c2.8,0,5,2.2,5,5v0c0,2.8-2.2,5-5,5h0c-2.8,0-5-2.2-5-5v0C135,132.2,137.2,130,140,130z"/>
	<path d="M160,130L160,130c2.8,0,5,2.2,5,5v0c0,2.8-2.2,5-5,5h0c-2.8,0-5-2.2-5-5v0C155,132.2,157.2,130,160,130z"/>
	<path d="M180,130L180,130c2.8,0,5,2.2,5,5v0c0,2.8-2.2,5-5,5h0c-2.8,0-5-2.2-5-5v0C175,132.2,177.2,130,180,130z"/>
</g>
</svg>
