<?xml version="1.0" encoding="utf-8"?>
<!-- Generator: Adobe Illustrator 23.0.0, SVG Export Plug-In . SVG Version: 6.00 Build 0)  -->
<svg version="1.1" id="Layer_1" xmlns="http://www.w3.org/2000/svg" xmlns:xlink="http://www.w3.org/1999/xlink" x="0px" y="0px"
	 viewBox="0 0 500 500" style="enable-background:new 0 0 500 500;" xml:space="preserve">
<g>
	<path d="M250,500c-66.8,0-129.6-26-176.8-73.2C26,379.6,0,316.8,0,250c0-66.8,26-129.6,73.2-176.8S183.2,0,250,0
		s129.6,26,176.8,73.2S500,183.2,500,250c0,66.8-26,129.6-73.2,176.8C379.6,474,316.8,500,250,500z M250,9.8
		C117.6,9.8,9.8,117.6,9.8,250c0,132.4,107.8,240.2,240.2,240.2S490.2,382.4,490.2,250C490.2,117.6,382.4,9.8,250,9.8z"/>
</g>
<g>
	<path d="M100.5,139.9v220.2c0,21.7,17.7,39.3,39.4,39.4h220.2c21.7,0,39.3-17.7,39.4-39.4V139.9c0-21.7-17.7-39.3-39.4-39.4H139.9
		C118.2,100.5,100.5,118.2,100.5,139.9z M139.9,111.5h220.3c15.7,0,28.4,12.7,28.4,28.4v220.3c0,15.7-12.7,28.4-28.4,28.4H139.9
		c-15.7,0-28.4-12.7-28.4-28.4V139.9C111.5,124.2,124.2,111.5,139.9,111.5z"/>
	<path d="M250,168.3c-45.1,0-81.7,36.7-81.7,81.7c0,45.1,36.7,81.7,81.7,81.7c45.1,0,81.7-36.7,81.7-81.7
		C331.7,205,295,168.3,250,168.3z M250,320.8L250,320.8c-39,0-70.8-31.7-70.8-70.8s31.7-70.8,70.8-70.8s70.8,31.7,70.8,70.8
		C320.7,289,289,320.7,250,320.8z"/>
	<path d="M343.2,134.4c-12.4,0-22.4,10.1-22.4,22.4s10.1,22.4,22.4,22.4c12.4,0,22.4-10.1,22.4-22.4S355.5,134.4,343.2,134.4z
		 M343.2,168.3c-6.3,0-11.5-5.1-11.5-11.5s5.1-11.5,11.5-11.5s11.5,5.1,11.5,11.5S349.5,168.3,343.2,168.3z"/>
</g>
</svg>
