<?xml version="1.0" encoding="utf-8"?>
<!-- Generator: Adobe Illustrator 23.0.0, SVG Export Plug-In . SVG Version: 6.00 Build 0)  -->
<svg version="1.1" id="Layer_1" xmlns="http://www.w3.org/2000/svg" xmlns:xlink="http://www.w3.org/1999/xlink" x="0px" y="0px"
	 viewBox="0 0 500 500" style="enable-background:new 0 0 500 500;" xml:space="preserve">
<g>
	<path d="M250,500c-66.8,0-129.6-26-176.8-73.2C26,379.6,0,316.8,0,250c0-66.8,26-129.6,73.2-176.8S183.2,0,250,0
		s129.6,26,176.8,73.2S500,183.2,500,250c0,66.8-26,129.6-73.2,176.8C379.6,474,316.8,500,250,500z M250,9.8
		C117.6,9.8,9.8,117.6,9.8,250c0,132.4,107.8,240.2,240.2,240.2S490.2,382.4,490.2,250C490.2,117.6,382.4,9.8,250,9.8z"/>
</g>
<g>
	<path d="M333.6,281.3c-14.3-6.7-31.2-0.6-37.9,13.7c-3,6.3-7.7,11.6-13.8,15.3c-17,10.4-39.2,5.1-49.7-11.9
		c-10.4-17-5.1-39.3,11.9-49.7c17-10.4,39.2-5.1,49.7,11.9c8.3,13.5,25.9,17.7,39.4,9.3c13.4-8.3,17.3-26.2,8.9-39.6
		c-13-20.9-33.4-35.6-57.4-41.4c-0.1,0-0.2,0-0.3-0.1c-8.6-2-17.4-2.8-26-2.4c25.1-15.4,54-33.1,66.1-40.5
		c13.4-8.2,17.6-25.8,9.4-39.2c-8.2-13.4-25.8-17.6-39.2-9.4c-15.7,9.6-56.7,34.8-86.8,53.2l55.7-76.7c4.1-5.6,11.1-8.2,17.8-6.6
		c5.8,1.4,10.9,5.8,12.6,12.4c0.8,3,3.8,4.9,6.9,4.1c3.1-0.8,4.9-4,4.1-6.9c-2.6-10-10.5-18.1-20.9-20.6l0,0
		c-11.1-2.7-22.9,1.6-29.7,11l-71.5,98.5c6.6-27.5,14.2-59.2,16.9-70.3c2.5-10.6,14.3-16.2,24.2-11.4c2.8,1.4,6.2,0.2,7.6-2.6
		c1.4-2.8,0.2-6.2-2.6-7.6c-16.4-8-36,1.3-40.2,19c-5.2,21.8-74.2,309.4-75.9,316.8c-0.7,3.1,1.2,6.1,4.2,6.9
		c3.1,0.7,6.1-1.2,6.9-4.2l48-200.4c0.1-0.5,0.8-3.4,1.9-8c3.4-14.3,12.3-26.5,24.8-34.1c29.4-18,83.6-51.3,102.2-62.7
		c8-4.9,18.6-2.4,23.5,5.6c4.9,8,2.4,18.6-5.6,23.5c-19.8,12.2-85.3,52.3-104.2,63.9c-2.7,1.6-3.5,5.2-1.9,7.8
		c1.6,2.7,5.2,3.5,7.8,1.9c38.2-23.4,88.5-11.5,112.1,26.5c5.1,8.1,2.8,18.9-5.3,23.9c-8.1,5-18.6,2.5-23.6-5.6
		c-13.7-22.3-43-29.4-65.3-15.7c-22.3,13.7-29.4,43-15.7,65.3c13.7,22.4,42.9,29.4,65.3,15.7c7.9-4.9,14.2-11.8,18.1-20.2
		c4-8.6,14.2-12.2,22.8-8.2c8.5,4,12.2,14.2,8.2,22.8c-6.8,14.4-17.6,26.4-31.2,34.8c-10.4,6.4-21.7,10.3-33.6,11.6
		c-21.2,2.4-38.8,18-43.8,39l-8.5,35.4c-0.7,3.1,1.2,6.1,4.2,6.9c3.1,0.7,6.1-1.2,6.9-4.2l8.5-35.4c3.9-16.3,17.6-28.5,34-30.3
		c13.6-1.5,26.5-6,38.3-13.2c15.5-9.5,27.8-23.2,35.5-39.7C353.9,305,347.8,288,333.6,281.3L333.6,281.3z"/>
	<path d="M333.6,281.3"/>
</g>
</svg>
