<?xml version="1.0" encoding="utf-8"?>
<!-- Generator: Adobe Illustrator 23.0.0, SVG Export Plug-In . SVG Version: 6.00 Build 0)  -->
<svg version="1.1" id="Layer_1" xmlns="http://www.w3.org/2000/svg" xmlns:xlink="http://www.w3.org/1999/xlink" x="0px" y="0px"
	 viewBox="0 0 500 500" style="enable-background:new 0 0 500 500;" xml:space="preserve">
<g>
	<path d="M250,500c-66.8,0-129.6-26-176.8-73.2C26,379.6,0,316.8,0,250c0-66.8,26-129.6,73.2-176.8S183.2,0,250,0
		s129.6,26,176.8,73.2S500,183.2,500,250c0,66.8-26,129.6-73.2,176.8C379.6,474,316.8,500,250,500z M250,9.8
		C117.6,9.8,9.8,117.6,9.8,250c0,132.4,107.8,240.2,240.2,240.2S490.2,382.4,490.2,250C490.2,117.6,382.4,9.8,250,9.8z"/>
</g>
<g>
	<path d="M144.6,180.3c-0.9-0.6-1.9-0.9-2.9-0.9c-0.3,0-0.7,0-1,0.1c-1.4,0.3-2.6,1-3.3,2.2c-15,22.2-22.9,48.1-22.9,75
		c0,35.9,14,69.6,39.3,95c25.4,25.4,59.1,39.3,95,39.3c26.1,0,51.4-7.5,73.2-21.7c1.2-0.8,2-1.9,2.3-3.3s0-2.8-0.7-3.9
		c-1.6-2.4-4.8-3.1-7.2-1.5c-20.1,13.1-43.4,20-67.5,20c-68.3,0-123.8-55.6-123.8-123.8c0-24.8,7.3-48.7,21.1-69.2
		C147.6,185.1,147,181.9,144.6,180.3z"/>
	<path d="M344.5,343.4c-1-1-2.3-1.5-3.7-1.5c-1.4,0-2.7,0.5-3.7,1.6l-0.2,0.2c-2,2-2,5.4,0,7.4c1,1,2.3,1.5,3.7,1.5
		c1.4,0,2.7-0.5,3.7-1.5l0.3-0.3c1-1,1.5-2.3,1.5-3.7C346.1,345.6,345.5,344.3,344.5,343.4z"/>
	<path d="M388.9,138.7l-22.2-22.2c-3.4-3.4-7.9-5.3-12.7-5.3c-4.8,0-9.3,1.9-12.7,5.3l-10.4,10.4c-1,1-1.5,2.3-1.5,3.7
		s0.6,2.7,1.5,3.7l3.7,3.7l-8.8,8.8l-0.7-0.5c-15.8-11-33.4-18.2-52.3-21.7l-0.8-0.1V112h14.7c2.9,0,5.2-2.3,5.2-5.2V79.4
		c0-2.9-2.3-5.2-5.2-5.2h-76c-2.9,0-5.2,2.3-5.2,5.2v27.4c0,2.9,2.3,5.2,5.2,5.2h14.7v12.4l-0.8,0.1c-17.8,3.2-34.6,9.9-49.7,19.9
		c-2.4,1.6-3.1,4.8-1.5,7.2c1.6,2.4,4.8,3.1,7.2,1.5c20.2-13.3,43.8-20.4,68.1-20.4c68.3,0,123.8,55.6,123.8,123.8
		c0,23.2-6.4,45.7-18.6,65.3c-1.5,2.4-0.8,5.7,1.7,7.2c0.8,0.5,1.8,0.8,2.8,0.8c1.8,0,3.5-0.9,4.4-2.5
		c13.2-21.2,20.2-45.7,20.2-70.8c0-27.5-8.2-54-23.8-76.4l-0.5-0.7l8.8-8.8l3.7,3.7c1,1,2.3,1.5,3.7,1.5c1.4,0,2.7-0.5,3.7-1.5
		l10.4-10.4C395.9,157.1,395.9,145.7,388.9,138.7z M216,101.6V84.6h65.5v16.9H216z M261.5,123l-1.1-0.1c-4-0.3-7.9-0.5-11.7-0.5
		c0,0,0,0,0,0c-3.9,0-7.8,0.2-11.7,0.5l-1.1,0.1v-11h25.7V123z M352.3,171.2l-0.7-0.8c-2.6-3-5.2-6-7.9-8.7
		c-2.7-2.7-5.6-5.4-8.7-7.9l-0.8-0.7l7.8-7.8l18.1,18.1L352.3,171.2z M381.5,156.7l-6.7,6.7L342,130.6l6.7-6.7
		c1.4-1.4,3.3-2.2,5.3-2.2c2,0,3.9,0.8,5.3,2.2l22.2,22.2c1.4,1.4,2.2,3.3,2.2,5.3C383.7,153.4,382.9,155.3,381.5,156.7z"/>
	<path d="M248.7,169.4c-2.9,0-5.2,2.3-5.2,5.2v13.7c0,2.9,2.3,5.2,5.2,5.2c2.9,0,5.2-2.3,5.2-5.2v-13.7
		C253.9,171.8,251.6,169.4,248.7,169.4z"/>
	<path d="M306.7,193.5c-1.4,0-2.7,0.6-3.7,1.5c-1,1-1.5,2.3-1.5,3.7c0,1.4,0.6,2.7,1.5,3.7c1,1,2.3,1.5,3.7,1.5
		c1.4,0,2.7-0.6,3.7-1.5c1-1,1.5-2.3,1.5-3.7c0-1.4-0.6-2.7-1.5-3.7C309.4,194,308.1,193.5,306.7,193.5z"/>
	<path d="M330.7,251.5H317c-2.9,0-5.2,2.3-5.2,5.2c0,2.9,2.3,5.2,5.2,5.2h13.7c2.9,0,5.2-2.3,5.2-5.2
		C336,253.8,333.6,251.5,330.7,251.5z"/>
	<path d="M306.7,309.5c-1.4,0-2.7,0.6-3.7,1.5c-1,1-1.5,2.3-1.5,3.7c0,1.4,0.6,2.7,1.5,3.7c1,1,2.3,1.5,3.7,1.5
		c1.4,0,2.7-0.6,3.7-1.5c1-1,1.5-2.3,1.5-3.7c0-1.4-0.6-2.7-1.5-3.7C309.4,310,308.1,309.5,306.7,309.5z"/>
	<path d="M248.7,319.8c-2.9,0-5.2,2.3-5.2,5.2v13.7c0,2.9,2.3,5.2,5.2,5.2c2.9,0,5.2-2.3,5.2-5.2V325
		C253.9,322.1,251.6,319.8,248.7,319.8z"/>
	<path d="M190.7,309.5c-1.4,0-2.7,0.6-3.7,1.5c-1,1-1.5,2.3-1.5,3.7c0,1.4,0.6,2.7,1.5,3.7c1,1,2.3,1.5,3.7,1.5s2.7-0.6,3.7-1.5
		c1-1,1.5-2.3,1.5-3.7c0-1.4-0.6-2.7-1.5-3.7C193.4,310,192.1,309.5,190.7,309.5z"/>
	<path d="M180.4,251.5h-13.7c-2.9,0-5.2,2.3-5.2,5.2c0,2.9,2.3,5.2,5.2,5.2h13.7c2.9,0,5.2-2.3,5.2-5.2
		C185.6,253.8,183.3,251.5,180.4,251.5z"/>
	<path d="M190.7,193.5c-1.4,0-2.7,0.6-3.7,1.5c-1,1-1.5,2.3-1.5,3.7c0,1.4,0.6,2.7,1.5,3.7c1,1,2.3,1.5,3.7,1.5s2.7-0.6,3.7-1.5
		s1.5-2.3,1.5-3.7s-0.6-2.7-1.5-3.7C193.4,194,192.1,193.5,190.7,193.5z"/>
	<path d="M238.8,239.1c-0.3,0.2-1.2,0.7-1.8,1.1c-5.3,3.8-8.5,10-8.5,16.4c0,11.1,9,20.2,20.2,20.2c6.5,0,12.6-3.1,16.4-8.4
		c0.5-0.6,0.9-1.3,1.2-1.8l31.1-51.4c1.2-2.1,0.9-4.7-0.8-6.4c-1-1-2.3-1.5-3.7-1.5c-0.9,0-1.9,0.2-2.7,0.8L238.8,239.1z
		 M257.3,261.2l-0.5,0.9c-1.9,2.7-4.8,4.3-8,4.3c-5.4,0-9.7-4.4-9.7-9.7c0-3.2,1.6-6.2,4.2-8l0.9-0.5c1.4-0.8,3-1.2,4.6-1.2
		c5.4,0,9.7,4.4,9.7,9.7C258.4,258.3,258,259.8,257.3,261.2z M266.2,246.5l-0.9-1.3c-1.4-2-3.1-3.8-5.2-5.2l-1.3-0.9l18.6-11.2
		L266.2,246.5z"/>
	<path d="M248.7,149.8c-58.9,0-106.9,47.9-106.9,106.9c0,58.9,47.9,106.9,106.9,106.9s106.9-47.9,106.9-106.9
		C355.6,197.8,307.6,149.8,248.7,149.8z M248.7,353.1c-53.2,0-96.4-43.3-96.4-96.4s43.3-96.4,96.4-96.4s96.4,43.3,96.4,96.4
		S301.9,353.1,248.7,353.1z"/>
	<path d="M157.8,159.8c-1.4,0-2.7,0.6-3.7,1.5c-1,1-1.5,2.3-1.5,3.7c0,1.4,0.6,2.7,1.5,3.7c1,1,2.3,1.5,3.7,1.5s2.7-0.6,3.7-1.5
		c1-1,1.5-2.3,1.5-3.7s-0.6-2.7-1.5-3.7C160.6,160.4,159.2,159.8,157.8,159.8z"/>
</g>
</svg>
