<?xml version="1.0" encoding="utf-8"?>
<!-- Generator: Adobe Illustrator 23.0.0, SVG Export Plug-In . SVG Version: 6.00 Build 0)  -->
<svg version="1.1" id="Layer_1" xmlns="http://www.w3.org/2000/svg" xmlns:xlink="http://www.w3.org/1999/xlink" x="0px" y="0px"
	 viewBox="0 0 500 500" style="enable-background:new 0 0 500 500;" xml:space="preserve">
<style type="text/css">
	.st0{fill-rule:evenodd;clip-rule:evenodd;}
</style>
<g>
	<path d="M250,500c-66.8,0-129.6-26-176.8-73.2C26,379.6,0,316.8,0,250c0-66.8,26-129.6,73.2-176.8S183.2,0,250,0
		s129.6,26,176.8,73.2S500,183.2,500,250c0,66.8-26,129.6-73.2,176.8C379.6,474,316.8,500,250,500z M250,9.8
		C117.6,9.8,9.8,117.6,9.8,250c0,132.4,107.8,240.2,240.2,240.2S490.2,382.4,490.2,250C490.2,117.6,382.4,9.8,250,9.8z"/>
</g>
<g>
	<path class="st0" d="M369.8,258.4c-2.6-15-8.5-28.9-15-41.8c0,0,0-0.1-0.1-0.1c-2.7-5.3-5.5-10.5-8.2-15.5
		c-8.8-16.3-17.2-31.7-17.8-45.7c-1.5-31.9,12.3-44.5,12.9-45c1.9-1.6,2.6-4.1,1.8-6.5c-0.8-2.3-3.1-3.9-5.6-3.9H162.2
		c-2.5,0-4.8,1.5-5.6,3.8c-0.8,2.3-0.2,4.9,1.7,6.4c0.6,0.5,14.4,13.1,12.9,45c-0.7,14-9,29.4-17.8,45.7c-2.7,5-5.5,10.2-8.2,15.5
		c0,0,0,0.1-0.1,0.1c-6.9,13.7-13.1,28.5-15.4,44.7c0,0.2-0.1,0.3-0.1,0.5c-0.8,6-1.1,12.1-0.7,18.4c0.7,10.8,2.6,23.1,5.5,36.4
		c0.7,3.2,3.8,5.2,7,4.5c3.2-0.7,5.2-3.8,4.5-7c-2.8-12.8-4.6-24.4-5.2-34.6c-0.1-2-0.2-3.9-0.2-5.9l83.3,64
		c5.6,4.3,12.7,7,20.3,7.7v43h-74.7c-2.1-5.3-6.4-16.1-10.9-29.7c-1-3.1-4.4-4.7-7.4-3.7c-3.1,1-4.7,4.3-3.7,7.4
		c6.7,19.9,12.5,33.5,12.8,34.1c0.9,2.2,3,3.6,5.4,3.6h169c2.3,0,4.5-1.4,5.4-3.6c1.1-2.6,27.8-65.3,31.1-116.2
		c0.5-7.4,0-14.6-1.1-21.5C369.8,258.6,369.8,258.5,369.8,258.4L369.8,258.4z M183,155.8c1-21.2-4.2-35.5-9.1-44.1h152.2
		c-4.9,8.6-10.1,22.9-9.1,44.1c0.8,16.7,9.7,33.3,19.2,50.8c2,3.6,4,7.3,5.9,11c-21.3,15.6-55.3,24.8-92.2,24.8
		c-36.9,0-70.9-9.2-92.2-24.8c1.9-3.7,3.9-7.4,5.9-11C173.2,189.1,182.2,172.5,183,155.8L183,155.8z M141.8,259.8
		c2-11,5.9-21.4,10.7-31.5c23.4,16.3,59.1,26,97.5,26c38.4,0,74.1-9.6,97.5-26c4.4,9.3,8.1,18.8,10.1,28.8l-93.4,71.8
		c-8.8,6.8-24,6.5-33.2-0.5L141.8,259.8z M359.3,279.4c-2.8,42.2-23.1,94.8-28.7,108.8h-74.7v-43.5c5.8-1.1,11.1-3.3,15.5-6.7
		l88-67.6C359.5,273.4,359.5,276.4,359.3,279.4L359.3,279.4z M359.3,279.4"/>
	<path class="st0" d="M250,215.2c3.2,0,5.9-2.6,5.9-5.9v-17.8c0-3.2-2.6-5.9-5.9-5.9c-3.2,0-5.9,2.6-5.9,5.9v17.8
		C244.1,212.6,246.8,215.2,250,215.2L250,215.2z M250,215.2"/>
	<path class="st0" d="M135.5,164.7c-2.3,2.3-2.3,6,0,8.3c1.1,1.1,2.6,1.7,4.1,1.7c1.5,0,3-0.6,4.1-1.7c0,0,17-17,17-17
		c1.3-1.3,2-3.3,1.7-5.1c-0.2-1.2-0.8-2.3-1.6-3.2l-17-17c-2.3-2.3-6-2.3-8.3,0c-2.3,2.3-2.3,6,0,8.3l7,7h-33.9
		c-3.2,0-5.9,2.6-5.9,5.9c0,3.2,2.6,5.9,5.9,5.9h33.9L135.5,164.7z M135.5,164.7"/>
	<path class="st0" d="M391.4,146h-33.9l7-7c2.3-2.3,2.3-6,0-8.3c-2.3-2.3-6-2.3-8.3,0l-17,17c-1.5,1.5-2.2,4.1-1.4,6.2
		c0.3,0.8,0.8,1.5,1.4,2.1l17,17c1.1,1.1,2.6,1.7,4.1,1.7c1.5,0,3-0.6,4.1-1.7c2.3-2.3,2.3-6,0-8.3l-7-7h33.9c3.2,0,5.9-2.6,5.9-5.9
		C397.3,148.6,394.7,146,391.4,146L391.4,146z M391.4,146"/>
	<path class="st0" d="M151.8,338.1c0-3.2-2.6-5.9-5.9-5.9s-5.9,2.6-5.9,5.9c0,3.2,2.6,5.9,5.9,5.9S151.8,341.3,151.8,338.1
		L151.8,338.1z M151.8,338.1"/>
</g>
</svg>
