<?xml version="1.0" encoding="utf-8"?>
<!-- Generator: Adobe Illustrator 23.0.0, SVG Export Plug-In . SVG Version: 6.00 Build 0)  -->
<svg version="1.1" id="Layer_1" xmlns="http://www.w3.org/2000/svg" xmlns:xlink="http://www.w3.org/1999/xlink" x="0px" y="0px"
	 viewBox="0 0 500 500" style="enable-background:new 0 0 500 500;" xml:space="preserve">
<g>
	<path d="M250,500c-66.8,0-129.6-26-176.8-73.2C26,379.6,0,316.8,0,250c0-66.8,26-129.6,73.2-176.8S183.2,0,250,0
		s129.6,26,176.8,73.2S500,183.2,500,250c0,66.8-26,129.6-73.2,176.8C379.6,474,316.8,500,250,500z M250,9.8
		C117.6,9.8,9.8,117.6,9.8,250c0,132.4,107.8,240.2,240.2,240.2S490.2,382.4,490.2,250C490.2,117.6,382.4,9.8,250,9.8z"/>
</g>
<g>
	<g>
		<path d="M416,380h-19.3c4.5-6.1,6.3-13.8,4.9-21.5c-0.8-4.1-2.4-7.9-4.8-11.2c4.2-1,8.3-2.9,11.8-5.7c2-1.6,3.2-4,3.2-6.6
			c0-2.6-1.1-5-3-6.7l-46.4-39.6c-3.4-2.9-6-6.7-7.4-11l-10.8-32.3c0,0,0,0,0,0l-9.8-29.1c-4.4-13.2-15-23.6-28.3-27.7l-33.6-10.6
			c9.1-6.4,15.1-17,15.1-29v-23.3c0-19.6-15.9-35.5-35.5-35.5c-19.6,0-35.5,15.9-35.5,35.5v23.3c0,11.4,5.4,21.6,13.9,28.1
			c-0.9,0.2-1.7,0.5-2.6,0.8l-34.1,10.7c-13.3,4.2-23.9,14.5-28.3,27.7L145,277.6c-1.4,4.3-4,8.1-7.4,11l-46.4,39.6
			c-2,1.7-3.1,4.1-3,6.7c0,2.6,1.2,5,3.2,6.6c3.7,3,8,4.9,12.4,5.9c-4.2,7.7-5,17.1-1.8,25.6c1,2.6,2.3,4.9,3.8,7H84
			c-2.8,0-5,2.2-5,5c0,2.8,2.2,5,5,5H416c2.8,0,5-2.2,5-5C421,382.2,418.7,380,416,380L416,380z M302,263.1l17.7,44
			c0.1,0.2,0.2,0.5,0.4,0.7c3.1,5.2,7.6,9.5,12.9,12.5l5.9,3.3L302,312.4V263.1z M355.9,296.2l45,38.5c-6,4-13.8,4.4-20.2,0.8
			l-42.9-23.9c-3.7-2-6.8-5-9-8.6L313,263.8l23.4-10.2l9.1,27.2C347.5,286.8,351.1,292.1,355.9,296.2L355.9,296.2z M226.7,148.8
			v-23.3c0-14.1,11.4-25.5,25.5-25.5c14.1,0,25.5,11.4,25.5,25.5v23.3c0,14.1-11.4,25.5-25.5,25.5
			C238.1,174.3,226.7,162.9,226.7,148.8L226.7,148.8z M196.8,197.9l34.1-10.7c12.5-3.9,25.7-3.9,38.2,0l34.1,10.7
			c10.2,3.2,18.4,11.2,21.8,21.4l8.3,24.7l-23.9,10.4l-7.7-19.1c-0.9-2.2-3.2-3.5-5.6-3c-2.4,0.5-4.1,2.5-4.1,4.9v73.8H208v-73.8
			c0-2.4-1.7-4.5-4.1-4.9c-2.4-0.5-4.7,0.8-5.6,3l-6.7,16.6l-23.6-11.8l7-20.8C178.5,209.1,186.6,201.1,196.8,197.9L196.8,197.9z
			 M144.1,296.2c4.8-4.1,8.4-9.4,10.4-15.4l10.4-31.1l23.1,11.6l-3.6,9.1c-1,2.6,0.2,5.5,2.8,6.5c2.6,1,5.5-0.2,6.5-2.8l4.4-10.9
			v49.2l-36.1,10.9l5.1-2.9c5.3-3,9.8-7.3,12.9-12.5c0.1-0.2,0.3-0.5,0.4-0.7l3.7-9.3c1-2.6-0.2-5.5-2.8-6.5c-2.6-1-5.5,0.2-6.5,2.8
			l-3.6,8.9c-2.2,3.6-5.3,6.5-9,8.6l-42.9,23.9c-6.4,3.6-14.2,3.2-20.2-0.8L144.1,296.2z M126.9,380L126.9,380
			c-7.3,0-12.9-3.8-15.5-10.5c-2.9-7.6-0.9-16.5,4.8-22l87.6-26.3h92.4l83.1,25.4c6.5,2,11.1,7.1,12.3,13.8
			c1.2,6.7-1.2,13.1-6.6,17.3l-3,2.4H276.3c-0.6-3.5-2.2-8.2-5.9-12.3l10-0.6c2.8-0.2,4.9-2.5,4.7-5.3c-0.2-2.8-2.5-4.9-5.3-4.7
			l-27.1,1.5c-1.1-0.2-2.3-0.4-3.6-0.5l-77.3-8.1c-2.8-0.3-5.2,1.7-5.5,4.5c-0.3,2.8,1.7,5.2,4.5,5.5l77.3,8.1
			c1.2,0.1,2.3,0.3,3.3,0.5c0,0,0,0,0.1,0c10,2,13.5,7.4,14.7,11.4H126.9z M126.9,380"/>
	</g>
	<path d="M306.1,365.7c0.1,0,0.2,0,0.3,0l33.8-1.9c2.8-0.2,4.9-2.5,4.7-5.3c-0.2-2.8-2.5-4.9-5.3-4.7l-33.8,1.9
		c-2.8,0.2-4.9,2.5-4.7,5.3C301.3,363.6,303.5,365.7,306.1,365.7L306.1,365.7z"/>
	<path d="M306.1,365.7"/>
</g>
</svg>
